<svg width="32" height="32" xmlns="http://www.w3.org/2000/svg">
 <title>users</title>

 <g>
  <title>background</title>
  <rect fill="none" id="canvas_background" height="402" width="582" y="-1" x="-1"/>
 </g>
 <g>
  <title>Layer 1</title>
  <path id="svg_1" d="m16,21.916c-4.797,0.02 -8.806,3.369 -9.837,7.856l-0.013,0.068c-0.011,0.048 -0.017,0.103 -0.017,0.16c0,0.414 0.336,0.75 0.75,0.75c0.357,0 0.656,-0.25 0.731,-0.585l0.001,-0.005c0.875,-3.885 4.297,-6.744 8.386,-6.744s7.511,2.859 8.375,6.687l0.011,0.057c0.076,0.34 0.374,0.59 0.732,0.59c0,0 0.001,0 0.001,0l0,0c0.057,0 0.112,-0.007 0.165,-0.019l-0.005,0.001c0.34,-0.076 0.59,-0.375 0.59,-0.733c0,-0.057 -0.006,-0.112 -0.018,-0.165l0.001,0.005c-1.045,-4.554 -5.055,-7.903 -9.849,-7.924l-0.002,0l-0.002,0.001zm-6.836,-11.314c0,0 0,0 0,0c2.582,0 4.676,-2.093 4.676,-4.676s-2.093,-4.676 -4.676,-4.676c-2.582,0 -4.676,2.093 -4.676,4.676l0,0c0.003,2.581 2.095,4.673 4.675,4.676l0,0l0.001,0zm0,-7.852c0,0 0,0 0,0c1.754,0 3.176,1.422 3.176,3.176s-1.422,3.176 -3.176,3.176c-1.754,0 -3.176,-1.422 -3.176,-3.176l0,0c0.002,-1.753 1.423,-3.174 3.175,-3.176l0,0l0.001,0zm13.762,7.852c2.582,0 4.676,-2.093 4.676,-4.676s-2.093,-4.676 -4.676,-4.676c-2.582,0 -4.676,2.093 -4.676,4.676l0,0c0.003,2.581 2.095,4.673 4.675,4.676l0,0l0.001,0zm0,-7.852c1.754,0 3.176,1.422 3.176,3.176s-1.422,3.176 -3.176,3.176c-1.754,0 -3.176,-1.422 -3.176,-3.176l0,0c0.002,-1.753 1.423,-3.174 3.176,-3.176l0,0zm7.896,17.09c-0.878,-3.894 -4.308,-6.759 -8.406,-6.759c-0.423,0 -0.839,0.031 -1.246,0.089l0.046,-0.006c-0.049,0.012 -0.092,0.028 -0.133,0.047l0.004,-0.002c-0.751,-2.129 -2.745,-3.627 -5.089,-3.627c-2.334,0 -4.321,1.485 -5.068,3.561l-0.012,0.038c-0.017,-0.004 -0.03,-0.014 -0.047,-0.017c-0.359,-0.053 -0.773,-0.084 -1.195,-0.084c-0.002,0 -0.005,0 -0.007,0l0,0c-4.092,0.018 -7.511,2.874 -8.392,6.701l-0.011,0.058c-0.011,0.048 -0.017,0.103 -0.017,0.16c0,0.414 0.336,0.75 0.75,0.75c0.357,0 0.656,-0.25 0.731,-0.585l0.001,-0.005c0.737,-3.207 3.56,-5.565 6.937,-5.579l0.002,0c0.335,0 0.664,0.024 0.985,0.07l-0.037,-0.004c-0.008,0.119 -0.036,0.232 -0.036,0.354c0.006,2.987 2.429,5.406 5.417,5.406s5.411,-2.419 5.416,-5.406l0,-0.001c0,-0.12 -0.028,-0.233 -0.036,-0.352c0.016,-0.002 0.031,0.005 0.047,0.001c0.294,-0.044 0.634,-0.068 0.98,-0.068c0.004,0 0.007,0 0.011,0l-0.001,0c3.379,0.013 6.203,2.371 6.93,5.531l0.009,0.048c0.076,0.34 0.375,0.589 0.732,0.59l0,0c0.057,0 0.112,-0.007 0.165,-0.019l-0.005,0.001c0.34,-0.076 0.59,-0.375 0.59,-0.733c0,-0.057 -0.006,-0.112 -0.018,-0.165l0.001,0.005l0.002,0.002zm-14.822,-0.924c0,0 0,0 -0.001,0c-2.163,0 -3.917,-1.753 -3.917,-3.917s1.754,-3.917 3.917,-3.917c2.163,0 3.917,1.754 3.917,3.917c0,0 0,0 0,0.001l0,0c-0.003,2.162 -1.754,3.913 -3.916,3.916l0,0z"/>
  <path d="m9.648655,2.652246c-0.067568,0 -0.27027,0 -0.675675,0c-0.337838,0 -0.610725,-0.03247 -0.810811,0c-0.210908,0.034226 -0.27027,0.067568 -0.405405,0.067568c-0.135135,0 -0.202703,0.067568 -0.27027,0.067568c-0.135135,0 -0.202703,0.067567 -0.337838,0.067567c-0.135135,0 -0.202703,0 -0.27027,0c-0.067568,0 -0.154925,0.01979 -0.202703,0.067568c-0.047777,0.047777 -0.04171,0.072711 -0.067567,0.135135c-0.036567,0.088281 -0.067567,0.135135 -0.135135,0.202703c-0.067567,0.067568 -0.135135,0.135135 -0.135135,0.202703c0,0.135135 0,0.202703 0,0.337838c0,0.067568 0,0.135135 0,0.202703c0,0.067567 0,0.135135 0,0.202703c0,0.067567 0,0.135135 0,0.202703c0,0.067567 0,0.135135 0,0.202703c0,0.067567 0,0.135135 0,0.202703c0,0.067567 0,0.202703 0,0.27027c0,0.067567 0,0.135135 0,0.202703c0,0.067567 0,0.135135 0,0.202703c0,0.067567 -0.015524,0.136943 0,0.202703c0.034712,0.147044 0.087358,0.154925 0.135135,0.202703c0.047778,0.047778 0.041711,0.140278 0.067568,0.202703c0.036567,0.088281 0.032045,0.212794 0.067567,0.27027c0.079431,0.128521 0.166135,0.181989 0.202703,0.27027c0.025857,0.062425 0.031001,0.114421 0.067568,0.202703c0.025857,0.062424 0.100422,0.123226 0.135135,0.27027c0.015524,0.06576 -0.003477,0.087749 0.067568,0.202703c0.079431,0.128521 0.135135,0.135135 0.202703,0.202703c0.067567,0.067568 0.01979,0.154925 0.067567,0.202703c0.095555,0.095555 0.135135,0.067568 0.202703,0.135135c0.067568,0.067567 0.135135,0.135135 0.202703,0.135135c0.067568,0 0.072711,0.041711 0.135135,0.067568c0.088281,0.036567 0.135135,0.067567 0.202703,0.067567c0.067567,0 0.135135,0 0.202703,0c0.067568,0 0.087357,0.01979 0.135135,0.067568c0.047778,0.047778 0.114422,0.031 0.202703,0.067568c0.062425,0.025857 0.093708,0.062 0.27027,0.135135c0.062425,0.025857 0.114421,0.031 0.202703,0.067568c0.062425,0.025857 0.135135,0 0.202703,0c0.067568,0 0.135135,0 0.202703,0c0.067568,0 0.135136,0 0.202703,0c0.067568,0 0.135136,0 0.202703,0c0.067568,0 0.135136,0 0.202703,0c0.067568,0 0.135136,0 0.202703,0c0.067568,0 0.135136,0 0.202703,0c0.067567,0 0.114421,-0.098568 0.202702,-0.135136c0.062425,-0.025857 0.140279,-0.04171 0.202703,-0.067567c0.088281,-0.036568 0.087357,-0.087358 0.135135,-0.135136c0.095554,-0.095554 0.176846,-0.005143 0.202703,-0.067567c0.036568,-0.088282 0.135135,-0.135136 0.202703,-0.135136c0.067568,0 0.098568,-0.046854 0.135136,-0.135135c0.025857,-0.062425 0.005143,-0.109279 0.067567,-0.135135c0.088282,-0.036567 0.098568,-0.114421 0.135136,-0.202703c0.025857,-0.062424 0.015853,-0.145422 0.067567,-0.27027c0.036568,-0.088281 0.100423,-0.123226 0.135136,-0.27027c0.015524,-0.06576 0.067567,-0.202703 0.067567,-0.337838c0,-0.067567 0,-0.135135 0,-0.202703c0,-0.135135 0,-0.202703 0,-0.27027c0,-0.067567 0,-0.135135 0,-0.202703c0,-0.067567 0,-0.135135 0,-0.202703c0,-0.067567 -0.067567,-0.135135 -0.067567,-0.202703c0,-0.067567 -0.041711,-0.140278 -0.067568,-0.202703c-0.036568,-0.088282 -0.098568,-0.114422 -0.135135,-0.202703c-0.025857,-0.062425 -0.100423,-0.123226 -0.135136,-0.27027c-0.015524,-0.06576 -0.067567,-0.135135 -0.202703,-0.27027c-0.067568,-0.067568 -0.114361,-0.080136 -0.202703,-0.202703c-0.055872,-0.077518 -0.135135,-0.135135 -0.202703,-0.202703c-0.067568,-0.067567 -0.140278,-0.109278 -0.202703,-0.135135c-0.088282,-0.036567 -0.136943,-0.119612 -0.202703,-0.135135c-0.147043,-0.034712 -0.16718,-0.077659 -0.202703,-0.135135c-0.079431,-0.128521 -0.147703,-0.114362 -0.27027,-0.202703c-0.077518,-0.055872 -0.080135,-0.114362 -0.202703,-0.202703c-0.077518,-0.055872 -0.087358,-0.087358 -0.135135,-0.135135c-0.047778,-0.047778 -0.087358,-0.087358 -0.135136,-0.135135c-0.047777,-0.047777 -0.062424,0.041711 0,0.067568c0.088282,0.036567 0.135136,0.135135 0.27027,0.27027c0.067568,0.067568 0.135135,0.135135 0.202703,0.27027c0.067568,0.135135 0.135135,0.202703 0.202703,0.27027c0.135136,0.135135 0.176846,0.275413 0.202703,0.337837c0.036568,0.088282 0.166135,0.114421 0.202703,0.202703c0.025857,0.062425 0.011696,0.125185 0.067568,0.202703c0.088342,0.122567 0.01979,0.222493 0.067568,0.27027c0.095554,0.095555 0.039579,0.107148 0.135135,0.202703c0.047778,0.047778 0.067568,0.067567 0.067568,0.135135c0,0.135135 0,0.202703 0,0.27027c0,0.067568 0,0.135135 0,0.202703c0,0.067568 0,0.135135 0,0.202703c0,0.067567 0,0.135135 0,0.202703c0,0.067567 -0.01979,0.087358 -0.067568,0.135135c-0.047778,0.047778 -0.041711,0.072711 -0.067568,0.135135c-0.036567,0.088281 -0.087358,0.087358 -0.135135,0.135135c-0.047778,0.047778 -0.098568,0.046854 -0.135136,0.135135c-0.025857,0.062424 -0.04171,0.072711 -0.067567,0.135135c-0.036568,0.088281 -0.067568,0.135135 -0.135135,0.135135c-0.067568,0 -0.087358,0.01979 -0.135136,0.067568c-0.047777,0.047777 -0.019791,0.087358 -0.067568,0.135135c-0.047777,0.047777 -0.154924,0.01979 -0.202703,0.067568c-0.047777,0.047777 -0.019789,0.087358 -0.067567,0.135135c-0.095555,0.095555 -0.202703,0 -0.27027,0c-0.067568,0 -0.135135,0 -0.202703,0c-0.067568,0 -0.135136,0 -0.202703,0c-0.067568,0 -0.088565,-0.103712 -0.202703,-0.202703c-0.161415,-0.139996 -0.27027,-0.202702 -0.337838,-0.27027c-0.067567,-0.067567 -0.057616,-0.146831 -0.135135,-0.202703c-0.122567,-0.088341 -0.192752,-0.146831 -0.27027,-0.202703c-0.122567,-0.088341 -0.141749,-0.19084 -0.27027,-0.27027c-0.057476,-0.035522 -0.135135,-0.067567 -0.202702,-0.135135c-0.067568,-0.067568 -0.140278,-0.176846 -0.202703,-0.202703c-0.088281,-0.036567 -0.098567,-0.114421 -0.135135,-0.202703c-0.025857,-0.062424 -0.052044,-0.136943 -0.067568,-0.202703c-0.034712,-0.147044 -0.067567,-0.202703 -0.067567,-0.27027c0,-0.067567 0,-0.135135 0,-0.27027c0,-0.067568 0,-0.135135 0,-0.202703c0,-0.067568 0,-0.135135 0,-0.202703c0,-0.067568 0.067567,-0.135135 0.135135,-0.202703c0.067568,-0.067568 0.114421,-0.166136 0.202703,-0.202703c0.062424,-0.025857 0.135135,0 0.27027,0c0.067567,0 0.135135,0 0.202703,0c0.067568,0 0.135135,0 0.202703,0c0.067568,0 0.135135,0 0.202703,0c0.067568,0 0.135135,0 0.202703,0c0.067568,0 0.114421,0.031001 0.202703,0.067568c0.062425,0.025857 0.135135,0.067567 0.202703,0.067567c0.067568,0 0.087358,0.019791 0.135135,0.067568c0.047777,0.047777 0.046854,0.166135 0.135136,0.202703c0.062425,0.025857 0.087358,0.01979 0.135135,0.067567c0.047777,0.047777 0.067568,0.067567 0.067568,0.135135c0,0.067567 0.098568,0.046854 0.135135,0.135135c0.025857,0.062425 0.067568,0.135135 0.067568,0.202703c0,0.067567 0,0.135135 0,0.202703c0,0.135135 0,0.202703 0,0.27027c0,0.067568 0,0.202703 0,0.27027c0,0.067567 0,0.135135 0,0.202703c0,0.067567 0,0.135135 -0.067568,0.135135c-0.067567,0 -0.125184,-0.011696 -0.202703,-0.067568c-0.122566,-0.088341 -0.27027,-0.202703 -0.337837,-0.27027c-0.067568,-0.067568 -0.154925,-0.154925 -0.202703,-0.202703c-0.047778,-0.047778 -0.079264,-0.057617 -0.135136,-0.135135c-0.088341,-0.122567 -0.125184,-0.146831 -0.202703,-0.202703c-0.122567,-0.088341 -0.141748,-0.19084 -0.270269,-0.27027c-0.057477,-0.035522 -0.181989,-0.166135 -0.27027,-0.202703c-0.062425,-0.025857 -0.202703,-0.067567 -0.27027,-0.135135c-0.067567,-0.067567 -0.114421,-0.098567 -0.202703,-0.135135c-0.062425,-0.025857 -0.135135,-0.067568 -0.202703,-0.135135c-0.067568,-0.067567 -0.067568,-0.135135 -0.135135,-0.135135l-0.135135,0l0,-0.067567l0,-0.067568" id="svg_5" stroke-width="1.5" stroke="#000" fill="none"/>
  <polyline stroke-linecap="round" id="svg_6" points="9.594770324373307,6.617851424150512 9.594770324373307,6.617851424150512 " stroke-width="1.5" stroke="#000" fill="none"/>
  <path d="m7.960783,2.761642c0,0.06536 -0.076673,0.186453 -0.130719,0.261438c-0.085454,0.118562 -0.115703,0.197827 -0.130719,0.261438c-0.033578,0.142239 -0.070335,0.171066 -0.130719,0.196078c-0.085396,0.035372 -0.065359,0.130719 -0.065359,0.196078c0,0.06536 -0.019144,0.084503 -0.06536,0.130719c-0.046216,0.046216 -0.06536,0.065359 -0.06536,0.130719c0,0.065359 -0.019144,0.084503 -0.06536,0.130719c-0.046216,0.046216 -0.065359,0.196078 -0.065359,0.261438c0,0.06536 0,0.196078 0,0.261438c0,0.06536 -0.06536,0.196078 0,0.196078c0.06536,0 0,-0.130719 0,-0.196078c0,-0.196078 0,-0.392157 0,-0.588235c0,-0.130719 0,-0.196078 0,-0.326797c0,-0.130719 0,-0.196078 0,-0.326797c0,-0.065359 0,-0.130719 0,-0.196078l0,-0.06536l0,-0.065359" id="svg_7" stroke-width="1.5" stroke="#000" fill="none"/>
  <path d="m11.359476,5.833538c-0.065359,0 -0.130719,0 -0.261437,0c-0.130719,0 -0.201055,0.040348 -0.261438,0.06536c-0.085396,0.035372 -0.201324,0.08567 -0.392157,0.130719c-0.142239,0.033578 -0.249919,0.097141 -0.392157,0.130719c-0.063612,0.015017 -0.176043,0.095347 -0.261438,0.130719c-0.120769,0.050025 -0.156005,0.059974 -0.326797,0.130719c-0.120769,0.050024 -0.241401,0.029987 -0.326797,0.06536c-0.060384,0.025012 -0.130719,0 -0.196078,0c-0.065359,0 -0.176042,0.029987 -0.261437,0.06536c-0.060385,0.025012 -0.110682,0.095346 -0.196078,0.130719c-0.060385,0.025012 -0.084503,0.019144 -0.130719,0.06536c-0.046217,0.046216 -0.160707,0.045323 -0.196078,0.130719c-0.025012,0.060384 -0.019144,0.084503 -0.06536,0.130719c-0.046216,0.046216 -0.130719,0 -0.130719,0.06536c0,0.065359 0,0.130719 0,0.196078c0,0.06536 0.06536,0.130719 0.06536,0.196078c0,0.06536 0,0.130719 0,0.261438c0,0.06536 0,0.130719 0,0.261438c0,0.06536 0.019143,0.084503 0.065359,0.130719c0.046216,0.046216 -0.046216,0.149862 0,0.196078c0.046217,0.046217 0.019143,0.084502 0.06536,0.130719c0.046216,0.046216 0.065359,0.065359 0.130718,0.065359l0.06536,0" id="svg_8" stroke-width="1.5" stroke="#000" fill="none"/>
  <path d="m8.4183,3.545956c0,0.065359 -0.065359,0.196078 -0.065359,0.392157c0,0.261438 -0.06536,0.522876 -0.06536,0.784313c0,0.130719 0,0.522876 0,0.653595c0,0.261438 0,0.326797 0,0.588235c0,0.196078 0,0.392157 0,0.588235c0,0.196078 0,0.326797 0,0.522876c0,0.065359 0,0.261438 0,0.392157c0,0.06536 0,0.261438 0,0.326797c0,0.06536 0,0.130719 0,0.196078c0,0.130719 0,0.196078 0,0.261438c0,0.065359 -0.025012,0.135694 0,0.196078c0.035373,0.085397 0.06536,0.130719 0.06536,0.196078c0,0.065359 0.029987,0.110682 0.065359,0.196078c0.025012,0.060384 0,0.130719 0,0.196078l0,0.06536l0,0.065359l0.06536,0.065359" id="svg_9" stroke-width="1.5" stroke="#000" fill="none"/>
  <path d="m20.183006,6.356413c0.065359,0 0.035326,0.068856 0.065359,0.196079c0.033577,0.142238 0.095346,0.176042 0.130718,0.261438c0.025011,0.060384 -0.025011,0.135694 0,0.196078c0.035372,0.085396 0.084503,0.149861 0.13072,0.196078c0.046217,0.046216 0.065359,0.196078 0.065359,0.261438c0,0.06536 0.095346,0.110682 0.130718,0.196078c0.025013,0.060384 0.065359,0.06536 0.065359,0.130719c0,0.06536 0.070333,0.105707 0.13072,0.130719c0.085396,0.035372 0.065359,0.130719 0.130718,0.130719c0.065359,0 0.019144,0.084502 0.065359,0.130718c0.046215,0.046216 0.084503,0.019143 0.13072,0.06536c0.046215,0.046216 0.135693,0.040347 0.196077,0.065359c0.085396,0.035372 0.149864,0.084503 0.196079,0.130719c0.046215,0.046216 0.070333,0.040347 0.130718,0.065359c0.085396,0.035373 0.142876,0.045264 0.261438,0.130719c0.074986,0.054046 0.196077,0.065359 0.261438,0.065359c0.065359,0 0.130718,0 0.196077,0c0.065359,0 0.13072,0 0.196079,0c0.065359,0 0.130718,0 0.326797,0c0.065359,0 0.196077,0 0.261436,0c0.13072,0 0.196079,0 0.261438,0c0.065359,0 0.13072,0 0.196079,0c0.065359,0 0.130718,0 0.196077,0c0.13072,0 0.280582,-0.019143 0.326797,-0.065359c0.046215,-0.046216 0.065359,-0.130719 0.13072,-0.130719c0.130718,0 0.149862,-0.084503 0.196077,-0.130719c0.046215,-0.046216 0.084503,-0.019142 0.13072,-0.065359c0.046215,-0.046216 0.065359,-0.065359 0.065359,-0.130719c0,-0.065359 0.019144,-0.084502 0.065359,-0.130718c0.046215,-0.046216 0.065359,-0.065361 0.130718,-0.130719c0.065361,-0.06536 0.045324,-0.160707 0.13072,-0.196079c0.060385,-0.025012 0.105707,-0.070335 0.130718,-0.130719c0.035372,-0.085396 0.084503,-0.084502 0.13072,-0.130719c0.046217,-0.046216 0.029987,-0.110682 0.065359,-0.196078c0.025011,-0.060384 0.097141,-0.05384 0.130718,-0.196078c0.015017,-0.063611 0.065359,-0.130719 0.065359,-0.196079c0,-0.065359 0,-0.130719 0,-0.196078c0,-0.130719 0,-0.196078 0,-0.326797c0,-0.196078 0,-0.261438 0,-0.392157c0,-0.130719 0,-0.261438 0,-0.326797c0,-0.130719 0,-0.196078 0,-0.326797c0,-0.06536 0,-0.130719 0,-0.196078c0,-0.06536 0,-0.130719 0,-0.196078c0,-0.130719 -0.015335,-0.206029 -0.065359,-0.326797c-0.035372,-0.085396 -0.019144,-0.149862 -0.065359,-0.196078c-0.046215,-0.046216 -0.095346,-0.045323 -0.130718,-0.130719c-0.025011,-0.060384 -0.13072,-0.130719 -0.196079,-0.196078c-0.065359,-0.06536 -0.071756,-0.184603 -0.196079,-0.261438c-0.111197,-0.068722 -0.221363,-0.125334 -0.392157,-0.196079c-0.060385,-0.025012 -0.201054,-0.040347 -0.261438,-0.065359c-0.085396,-0.035372 -0.197826,-0.115703 -0.261436,-0.130719c-0.142241,-0.033578 -0.266413,-0.040348 -0.326797,-0.06536c-0.170794,-0.070745 -0.263187,-0.115703 -0.326797,-0.130719c-0.142241,-0.033578 -0.196079,-0.065359 -0.261438,-0.065359c-0.065359,0 -0.130718,0 -0.261438,0c-0.065359,0 -0.130718,0 -0.196077,0c-0.065359,0 -0.13072,0 -0.196079,0c-0.065359,0 -0.130718,0 -0.196077,0c-0.065361,0 -0.135695,0.040347 -0.196079,0.065359c-0.085396,0.035372 -0.130718,0.130719 -0.196079,0.130719c-0.065359,0 -0.084503,0.019144 -0.130718,0.06536c-0.046217,0.046216 -0.070333,0.040347 -0.130718,0.065359c-0.085396,0.035372 -0.149864,0.084503 -0.196079,0.130719c-0.046217,0.046216 -0.065359,0.065359 -0.130718,0.130719c-0.065359,0.06536 -0.084503,0.084502 -0.13072,0.130719c-0.046217,0.046216 -0.084503,0.084503 -0.130718,0.130719c-0.046217,0.046216 -0.045322,0.160706 -0.130718,0.196078c-0.060387,0.025012 -0.105709,0.070335 -0.13072,0.130719c-0.035372,0.085396 -0.084501,0.149862 -0.130718,0.196078c-0.046215,0.046216 -0.130718,0 -0.130718,0.06536c0,0.06536 0,0.130719 0,0.196078c0,0.06536 0,0.130719 0,0.196079c0,0.065359 0,0.130719 0,0.196078c0,0.065359 0,0.130719 0,0.196078c0,0.06536 0,0.130719 0,0.196078c0,0.06536 0,0.130719 0,0.196078c0,0.06536 0.065359,0.130719 0.065359,0.196079c0,0.06536 0.040348,0.135694 0.065359,0.196078c0.035372,0.085396 0.065359,0.130719 0.130718,0.196078c0.065359,0.06536 0.095346,0.110682 0.13072,0.196079c0.025013,0.060384 0.040348,0.070334 0.065359,0.130719c0.035372,0.085396 0.121092,0.142033 0.196077,0.196078c0.118563,0.085455 0.215223,0.084503 0.261438,0.130719c0.046217,0.046216 0.110683,0.095346 0.196079,0.130719c0.060385,0.025012 0.119198,0.097141 0.261436,0.130719c0.127224,0.030034 0.184559,0.031782 0.326797,0.06536c0.063612,0.015017 0.199575,-0.030033 0.326797,0c0.142241,0.033578 0.196079,0.065359 0.326797,0.065359c0.065361,0 0.196079,0 0.261438,0c0.130718,0 0.261438,0 0.326797,0c0.130718,0 0.196079,0 0.326797,0c0.130718,0 0.184559,-0.031781 0.326797,-0.065359c0.127222,-0.030033 0.132467,-0.050343 0.196077,-0.06536c0.142241,-0.033578 0.205841,-0.161717 0.261438,-0.196078c0.124321,-0.076835 0.100687,-0.199575 0.13072,-0.326797c0.033577,-0.142239 0.130718,-0.196078 0.130718,-0.261438c0,-0.130719 0,-0.196078 0,-0.392157c0,-0.130719 0,-0.261438 0,-0.392157c0,-0.06536 0.030033,-0.199575 0,-0.326797c-0.033577,-0.142239 -0.130718,-0.261437 -0.261438,-0.392157c-0.130718,-0.130719 -0.196077,-0.130719 -0.326797,-0.261438c-0.065359,-0.065359 -0.15024,-0.061996 -0.261436,-0.130719c-0.124323,-0.076835 -0.20603,-0.080697 -0.326797,-0.130719c-0.085398,-0.035372 -0.110683,-0.095346 -0.196079,-0.130719c-0.120768,-0.050024 -0.261438,0 -0.326797,0c-0.130718,0 -0.198881,-0.01894 -0.261438,0c-0.225544,0.06829 -0.266413,0.105706 -0.326797,0.130719c-0.085396,0.035372 -0.110682,0.095347 -0.196077,0.130719c-0.060385,0.025012 -0.184605,0.006398 -0.261438,0.130719c-0.034361,0.055598 -0.084503,0.084503 -0.130718,0.130719c-0.046217,0.046216 -0.065361,0.130719 -0.065361,0.196078c0,0.06536 0,0.196078 0,0.261438c0,0.06536 0,0.130719 0,0.196078c0,0.06536 0.029987,0.110682 0.065361,0.196079c0.025013,0.060384 0.045322,0.095346 0.130718,0.130719c0.060385,0.025012 0.262281,0.12025 0.326797,0.130719c0.204018,0.033107 0.262281,0.05489 0.326797,0.06536c0.204018,0.033107 0.261438,0.065359 0.392157,0.065359c0.065359,0 0.196079,0 0.326797,0c0.065359,0 0.201054,-0.040347 0.261438,-0.065359c0.085396,-0.035372 0.196077,-0.065359 0.261438,-0.130719c0.065359,-0.065359 0.130718,-0.130719 0.130718,-0.196078c0,-0.130719 -0.070333,-0.171067 -0.130718,-0.196079c-0.085398,-0.035372 -0.134216,-0.100686 -0.261438,-0.130719c-0.284477,-0.067156 -0.457518,-0.196078 -0.588236,-0.196078c-0.065359,0 -0.196077,0 -0.326797,0c-0.065359,0 -0.201052,-0.025012 -0.261438,0c-0.085396,0.035372 -0.2414,0.160706 -0.326797,0.196078c-0.060385,0.025012 -0.105707,0.070335 -0.130718,0.130719c-0.035372,0.085396 -0.065359,0.130719 -0.065359,0.196079c0,0.130719 0,0.196078 0,0.392157c0,0.06536 0.100685,0.134216 0.130718,0.261438c0.033577,0.142239 0.186455,0.207392 0.261438,0.261438c0.118561,0.085454 0.199575,0.166046 0.326797,0.196079c0.284477,0.067156 0.326797,0.196078 0.588236,0.196078c0.196077,0 0.326797,0 0.457516,0c0.065359,0 0.196079,0 0.326797,0c0.065359,0 0.130718,0 0.196077,0c0.065361,0 0.13072,0 0.196079,0l0.065359,0" id="svg_10" stroke-width="1.5" stroke="#000" fill="none"/>
  <path d="m23.2549,6.944649c-0.065359,0 -0.265656,-0.078372 -0.588234,-0.130719c-0.204018,-0.033107 -0.261438,-0.130719 -0.457518,-0.130719c-0.130718,0 -0.196077,0 -0.522875,0c-0.196079,0 -0.457516,0 -0.522877,0c-0.196077,0 -0.261436,0 -0.326797,0c-0.065359,0 -0.130718,0 -0.261436,0c-0.13072,0 -0.196079,0 -0.326797,0c-0.065359,0 -0.149864,-0.019144 -0.196079,-0.06536c-0.046215,-0.046216 -0.019142,-0.084503 -0.065359,-0.130719c-0.046215,-0.046216 -0.084503,-0.019144 -0.130718,-0.06536c-0.046217,-0.046216 0,-0.130719 0,-0.196078c0,-0.06536 0,-0.130719 0,-0.196078l0,-0.06536l0,-0.06536" id="svg_11" stroke-width="1.5" stroke="#000" fill="none"/>
  <path d="m20.90196,6.356413c0,-0.065359 -0.019144,-0.084503 -0.065361,-0.130719c-0.046215,-0.046216 -0.084503,-0.019144 -0.130718,-0.06536c-0.046217,-0.046216 -0.019144,-0.084503 -0.065359,-0.130719c-0.046215,-0.046216 -0.110682,-0.095347 -0.196079,-0.130719c-0.060385,-0.025012 -0.084501,-0.019144 -0.130718,-0.06536c-0.046215,-0.046216 -0.070333,-0.040348 -0.130718,-0.06536c-0.085398,-0.035372 -0.13072,-0.065359 -0.13072,-0.130719l-0.065359,-0.06536l-0.065359,-0.06536" id="svg_12" stroke-width="1.5" stroke="#000" fill="none"/>
  <path d="m23.058823,2.761642c-0.065359,0 -0.310066,-0.080378 -0.784313,0.261438c-0.149971,0.108092 -0.343569,0.288814 -0.653595,0.392157c-0.062006,0.020669 -0.208237,0.110624 -0.326797,0.196078c-0.074986,0.054046 -0.201054,0.105707 -0.261438,0.130719c-0.085396,0.035372 -0.197828,0.115702 -0.261438,0.130719c-0.142239,0.033578 -0.201052,0.105707 -0.261436,0.130719c-0.085398,0.035372 -0.084503,0.084503 -0.13072,0.130719c-0.092432,0.092432 -0.130718,0.06536 -0.196077,0.130719c-0.065361,0.06536 -0.160707,0.110682 -0.196079,0.196078c-0.025013,0.060384 -0.019142,0.084503 -0.065359,0.130719c-0.046215,0.046216 -0.040346,0.070335 -0.065359,0.130719c-0.035374,0.085397 -0.13072,0.06536 -0.13072,0.196079c0,0.06536 0,0.130719 0,0.261438c0,0.065359 0,0.130719 0,0.196078c0,0.06536 0,0.130719 0,0.196078l0,0.06536l0,0.06536" id="svg_13" stroke-width="1.5" stroke="#000" fill="none"/>
  <path d="m16.457516,10.931577c-0.065359,0 -0.135695,-0.025012 -0.196079,0c-0.170792,0.070745 -0.184557,0.1625 -0.326797,0.196078c-0.127222,0.030033 -0.176042,0.029987 -0.261438,0.06536c-0.060384,0.025012 -0.149862,0.019143 -0.196078,0.065359c-0.046216,0.046216 -0.184559,0.097141 -0.326797,0.130719c-0.127222,0.030033 -0.196078,0.065359 -0.261438,0.065359c-0.065359,0 -0.130718,0 -0.196078,0.06536c-0.065359,0.065359 -0.110682,0.095346 -0.196078,0.130718c-0.060384,0.025012 -0.196078,0.06536 -0.261437,0.06536c-0.06536,0 -0.215221,0.084501 -0.261438,0.130718c-0.046217,0.046217 -0.07531,0.015336 -0.196078,0.06536c-0.085396,0.035372 -0.084502,0.084502 -0.130719,0.130719c-0.046216,0.046216 -0.095346,0.045321 -0.130719,0.130718c-0.025012,0.060385 -0.040347,0.070335 -0.065359,0.130719c-0.035372,0.085396 -0.149862,0.084503 -0.196078,0.130719c-0.046216,0.046216 -0.065359,0.130719 -0.065359,0.196078c0,0.065359 -0.075121,0.096358 -0.130719,0.130719c-0.12432,0.076835 -0.095346,0.176041 -0.130719,0.261437c-0.025012,0.060385 -0.019143,0.084503 -0.065359,0.130719c-0.046216,0.046216 0.020095,0.142877 -0.06536,0.261438c-0.054046,0.074985 -0.065359,0.130718 -0.065359,0.196078c0,0.130718 0,0.196078 0,0.261437c0,0.130719 0,0.261438 0,0.326797c0,0.130719 0,0.196078 0,0.326797c0,0.065359 0,0.130719 0,0.261437c0,0.130719 0,0.261438 0,0.326797c0,0.130719 0,0.196078 0,0.326797c0,0.130719 0,0.196078 0,0.261438c0,0.130719 0,0.196078 0,0.326797c0,0.065361 0.031781,0.1192 0.065359,0.261438c0.015017,0.06361 0.06536,0.065359 0.06536,0.130718c0,0.13072 0.084502,0.149862 0.130719,0.196079c0.092432,0.092432 0.040347,0.201054 0.065359,0.261438c0.035372,0.085396 0.130718,0.130718 0.261437,0.261438c0.06536,0.065359 0.077517,0.110624 0.196078,0.196077c0.074986,0.054047 0.196078,0.130718 0.326797,0.261438c0.06536,0.065359 0.261438,0.196077 0.392158,0.261438c0.130719,0.065359 0.196922,0.185608 0.261437,0.196077c0.204016,0.033108 0.263186,0.050343 0.326797,0.065359c0.14224,0.033579 0.21634,0.02206 0.392157,0.13072c0.078628,0.048594 0.176043,0.095346 0.261438,0.130718c0.120769,0.050024 0.196078,0 0.261438,0c0.065359,0 0.196078,0 0.261437,0c0.130719,0 0.196078,0 0.261437,0c0.065359,0 0.196079,0 0.261438,0c0.065359,0 0.176043,-0.029987 0.261438,-0.065359c0.060385,-0.025011 0.132467,-0.050343 0.196077,-0.065359c0.142241,-0.033577 0.201056,-0.040346 0.261438,-0.065359c0.085398,-0.035374 0.140669,-0.080696 0.261438,-0.13072c0.170792,-0.070744 0.176041,-0.226065 0.261438,-0.261438c0.060385,-0.025011 0.110682,-0.095346 0.196077,-0.130718c0.060385,-0.025011 0.196079,-0.130718 0.261438,-0.196079c0.065359,-0.065359 0.130718,-0.130718 0.196077,-0.196077c0.065361,-0.065359 0.065361,-0.130718 0.13072,-0.196079c0.130718,-0.130718 0.160706,-0.176041 0.196077,-0.261436c0.025013,-0.060387 0.084505,-0.084505 0.13072,-0.13072c0.046215,-0.046215 0.040346,-0.201052 0.065359,-0.261438c0.035372,-0.085396 0.040346,-0.135693 0.065359,-0.196077c0.070745,-0.170794 0.162502,-0.184559 0.196079,-0.326797c0.030033,-0.127222 0,-0.261438 0,-0.392157c0,-0.130719 0,-0.261438 0,-0.392158c0,-0.065359 0,-0.196078 0,-0.326797c0,-0.065359 0,-0.196078 0,-0.326797c0,-0.06536 -0.029987,-0.176043 -0.065359,-0.261438c-0.075035,-0.181152 -0.050344,-0.263186 -0.065361,-0.326797c-0.033577,-0.142239 -0.1625,-0.249918 -0.196077,-0.392157c-0.015017,-0.063611 -0.015335,-0.14067 -0.065359,-0.261438c-0.035374,-0.085397 -0.13072,-0.130718 -0.196079,-0.261437c-0.065359,-0.130719 -0.161718,-0.20584 -0.196079,-0.261438c-0.076834,-0.12432 -0.092735,-0.158094 -0.196077,-0.261437c-0.103342,-0.103343 -0.196079,-0.130719 -0.261438,-0.196078c-0.065359,-0.06536 -0.135693,-0.171066 -0.196077,-0.196078c-0.085398,-0.035373 -0.201054,-0.171067 -0.261438,-0.196079c-0.085396,-0.035372 -0.135695,-0.040347 -0.196079,-0.065359c-0.085396,-0.035372 -0.186451,-0.076673 -0.261436,-0.130719c-0.118563,-0.085455 -0.176043,-0.095346 -0.261438,-0.130718c-0.060385,-0.025012 -0.196079,0 -0.261438,0c-0.065359,0 -0.176043,0.029987 -0.261438,0.065359c-0.060385,0.025012 -0.142876,-0.020096 -0.261437,0.065359c-0.074985,0.054047 -0.169005,-0.027072 -0.261437,0.06536c-0.046216,0.046216 -0.105707,0.070334 -0.130719,0.130718c-0.035373,0.085397 -0.201054,0.105707 -0.261438,0.130719c-0.085397,0.035373 -0.176041,0.226066 -0.261437,0.261438c-0.060385,0.025012 -0.06536,0.065359 -0.130719,0.130718c-0.06536,0.06536 -0.038287,0.169006 -0.130719,0.261438c-0.046216,0.046216 -0.065359,0.065359 -0.130719,0.130719c-0.065359,0.065359 -0.084502,0.149862 -0.130718,0.196078c-0.046216,0.046216 -0.06536,0.196078 -0.06536,0.261437c0,0.06536 -0.095346,0.110682 -0.130718,0.196079c-0.025012,0.060384 -0.06536,0.130718 -0.06536,0.196078c0,0.065359 0,0.130718 0,0.196078c0,0.065359 0,0.130719 0,0.196078c0,0.065359 0,0.196078 0,0.261437c0,0.06536 0,0.130719 0,0.196079c0,0.065359 0,0.130718 0,0.261437c0,0.130719 0,0.196078 0,0.326797c0,0.130719 0.029987,0.30676 0.06536,0.392157c0.025012,0.060385 0.065359,0.196078 0.065359,0.261438c0,0.196078 -0.015017,0.263186 0,0.326797c0.033578,0.142241 0.045265,0.273596 0.130719,0.392157c0.054047,0.074986 0.097611,0.122782 0.130718,0.326797c0.010469,0.064518 0.011313,0.186453 0.06536,0.261438c0.085455,0.118563 0.095346,0.241402 0.130718,0.326797c0.025012,0.060385 0.040347,0.135693 0.06536,0.196079c0.035372,0.085396 0,0.196077 0.065359,0.196077c0.130718,0 -0.073899,-0.335211 -0.130719,-0.522875c-0.068289,-0.225546 -0.228331,-0.449579 -0.261437,-0.653595c-0.041878,-0.258062 -0.032252,-0.384218 -0.065359,-0.588236c-0.031408,-0.193546 -0.097141,-0.315278 -0.130719,-0.457516c-0.015017,-0.063612 -0.015335,-0.20603 -0.065359,-0.326797c-0.035373,-0.085397 -0.097141,-0.1192 -0.130719,-0.261438c-0.030033,-0.127222 -0.06536,-0.261437 -0.06536,-0.326797c0,-0.130718 0.020037,-0.226066 -0.065359,-0.261437c-0.060384,-0.025012 -0.019143,-0.084503 -0.065359,-0.130719c-0.046217,-0.046217 -0.06536,-0.065359 -0.130719,-0.065359c-0.06536,0 -0.130719,0 -0.196078,0c-0.06536,0 -0.06536,0.065359 -0.06536,0.130718c0,0.06536 0,0.130719 0,0.196079c0,0.065359 0,0.130718 0,0.196078c0,0.196078 0,0.261437 0,0.326797c0,0.065359 0,0.130718 0,0.196078c0,0.065359 0,0.196078 0,0.392157c0,0.130719 0.06536,0.326797 0.130719,0.457516c0.065359,0.13072 0.092735,0.223455 0.196078,0.326797c0.103344,0.103344 0.13072,0.261436 0.261438,0.392157c0.06536,0.065361 0.122976,0.208515 0.326797,0.326797c0.126405,0.073357 0.326797,0.13072 0.457516,0.261438c0.06536,0.065359 0.196078,0.065359 0.326797,0.130718c0.130719,0.065361 0.196078,0.065361 0.326797,0.065361c0.06536,0 0.130719,0 0.261438,0c0.130719,0 0.196078,0 0.326797,0c0.13072,0 0.196079,0 0.326797,0c0.065359,0 0.266413,-0.105709 0.326797,-0.13072c0.170794,-0.070744 0.241343,-0.273594 0.326797,-0.392157c0.108091,-0.149969 0.196079,-0.196077 0.261438,-0.261438c0.065359,-0.065359 0.095346,-0.176041 0.130718,-0.261436c0.050024,-0.12077 0.015335,-0.271389 0.065359,-0.392157c0.035374,-0.085398 0.065361,-0.196079 0.065361,-0.326798c0,-0.065359 0,-0.261437 0,-0.392157c0,-0.130719 -0.031782,-0.249918 -0.065361,-0.392157c-0.045052,-0.190834 -0.035326,-0.264935 -0.065359,-0.392158c-0.033577,-0.142238 -0.109779,-0.197766 -0.130718,-0.326797c-0.033108,-0.204016 -0.226067,-0.30676 -0.261438,-0.392157c-0.050024,-0.120769 -0.115702,-0.263186 -0.130718,-0.326797c-0.033577,-0.142238 -0.153347,-0.176827 -0.261438,-0.326797c-0.085453,-0.118561 -0.105707,-0.201054 -0.130718,-0.261437c-0.070745,-0.170794 -0.215223,-0.149862 -0.261438,-0.196078c-0.046217,-0.046217 -0.019144,-0.084503 -0.065359,-0.130719c-0.046217,-0.046217 -0.13072,0 -0.196079,0c-0.065359,0 -0.135693,-0.025012 -0.196078,0c-0.085396,0.035372 -0.149862,0.084503 -0.196078,0.130719c-0.092432,0.092432 -0.095346,0.176041 -0.130719,0.261437c-0.050024,0.120769 -0.015335,0.206029 -0.065359,0.326797c-0.035373,0.085397 -0.100686,0.264935 -0.130719,0.392157c-0.033578,0.142239 -0.065359,0.261438 -0.065359,0.392158c0,0.196078 0,0.326797 0,0.457516c0,0.196078 0,0.326797 0,0.522876c0,0.06536 0,0.196078 0,0.392158c0,0.065359 0.031781,0.184559 0.065359,0.326797c0.030033,0.127221 0.016765,0.248171 0.065359,0.326797c0.108661,0.175816 0.084503,0.215221 0.130719,0.261436c0.046217,0.046217 -0.020037,0.160707 0.06536,0.196079c0.060384,0.025011 0.065358,-0.065359 0.130718,-0.196079c0.065359,-0.130718 0.194283,-0.369118 0.261438,-0.653594c0.030033,-0.127222 0.077669,-0.453835 0.130718,-0.653595c0.085539,-0.322104 0.065359,-0.457516 0.065359,-0.588235c0,-0.130719 0,-0.326797 0,-0.457517c0,-0.130718 -0.050024,-0.206029 0,-0.326797c0.035374,-0.085397 0.095348,-0.176042 0.13072,-0.261437c0.050024,-0.120769 0.05489,-0.262282 0.065359,-0.326797c0.033108,-0.204016 0.092735,-0.223454 0.196079,-0.326797c0.103342,-0.103342 0.130718,-0.261437 0.326797,-0.392157c0.196077,-0.130719 0.452665,-0.228599 0.784313,-0.261438c0.130081,-0.01288 0.196077,0 0.392157,0c0.065359,0 0.110682,0.160707 0.196077,0.196078c0.060387,0.025013 0.13072,0.130719 0.13072,0.196079c0,0.065359 0.065359,0.130718 0.065359,0.196078c0,0.130718 0,0.261437 0,0.392157c0,0.065359 -0.009432,0.257133 -0.065359,0.392157c-0.079094,0.190951 -0.175985,0.404315 -0.261438,0.522876c-0.108091,0.14997 -0.336393,0.38322 -0.457516,0.522876c-0.214119,0.246881 -0.242188,0.349425 -0.392157,0.457517c-0.118563,0.085455 -0.176828,0.218706 -0.326797,0.326797c-0.118563,0.085455 -0.256054,0.156005 -0.326797,0.326797c-0.025011,0.060384 -0.092735,0.223454 -0.196079,0.326797c-0.103344,0.103344 -0.160706,0.176043 -0.196077,0.261438c-0.025011,0.060385 -0.065361,0.130718 -0.13072,0.130718l0,0.065361l-0.065359,0l0,0.065359" id="svg_14" stroke-width="1.5" stroke="#000" fill="none"/>
  <path d="m16.653593,15.245302c0,-0.065359 -0.025013,-0.135695 0,-0.196078c0.035374,-0.085397 0.207392,-0.382531 0.261438,-0.457517c0.085453,-0.118562 0.065359,-0.326797 0.13072,-0.392157c0.13072,-0.130718 0.1625,-0.184559 0.196077,-0.326797c0.030033,-0.127222 0.09761,-0.188141 0.130718,-0.392157c0.010469,-0.064515 0.045265,-0.142877 0.13072,-0.261438c0.054047,-0.074985 0.095346,-0.110682 0.130718,-0.196078c0.025011,-0.060384 0.050343,-0.067107 0.065359,-0.130719c0.033579,-0.142239 0.13072,-0.130718 0.13072,-0.196078c0,-0.065359 0.065359,-0.065359 0.065359,-0.130718l0.065359,-0.06536l0.065359,0l0,-0.065359" id="svg_15" stroke-width="1.5" stroke="#000" fill="none"/>
  <path d="m14.496731,11.258374c0.06536,0.065359 0.338016,0.054958 0.588236,0.130719c0.225545,0.06829 0.407452,0.097578 0.718954,0.261437c0.208561,0.10971 0.384413,0.208514 0.588236,0.326797c0.126404,0.073356 0.397131,0.236426 0.457516,0.261438c0.170792,0.070745 0.251814,0.207392 0.326797,0.261437c0.118561,0.085455 0.272751,0.121094 0.326797,0.196078c0.085455,0.118562 0.110682,0.160707 0.196077,0.196078c0.060387,0.025013 0.175983,0.077518 0.261438,0.196079c0.054047,0.074985 0.142033,0.055734 0.196079,0.130718c0.085455,0.118562 0.110682,0.226067 0.196077,0.261438c0.060385,0.025012 0.065359,0.065359 0.13072,0.130719l0.065359,0.065359" id="svg_16" stroke-width="1.5" stroke="#000" fill="none"/>
 </g>
</svg>