<svg width="27" height="24" viewBox="0 0 27 24" fill="none" xmlns="http://www.w3.org/2000/svg">
<path d="M25.4599 6.60325L13.6707 0.24141C13.3242 0.0547432 12.9077 0.0547432 12.5624 0.24141L0.779069 6.60325C0.212067 6.91125 0.000900522 7.61823 0.30657 8.18523C0.516569 8.57607 0.91907 8.79774 1.33324 8.79774C1.5199 8.79774 1.71124 8.7534 1.8874 8.65773L2.74374 8.19573L4.59874 21.3207C4.85074 22.7371 6.12707 23.7264 7.70207 23.7264H18.531C20.106 23.7264 21.3824 22.7371 21.6367 21.2904L23.4894 8.19458L24.3492 8.65891C24.915 8.96574 25.6232 8.75456 25.9289 8.18756C26.2357 7.62056 26.0222 6.9124 25.4575 6.60674L25.4599 6.60325ZM13.1165 16.0357C11.0224 16.0357 9.3249 14.3382 9.3249 12.2441C9.3249 10.1499 11.0224 8.4524 13.1165 8.4524C15.2107 8.4524 16.9082 10.1499 16.9082 12.2441C16.9082 14.3382 15.2107 16.0357 13.1165 16.0357Z" fill="black"/>
</svg>
