<?xml version="1.0" encoding="utf-8"?>
<!-- Uploaded to: SVG Repo, www.svgrepo.com, Generator: SVG Repo Mixer Tools -->
<svg width="15px" height="15px" viewBox="0 0 1024 1024" class="icon"  version="1.1" xmlns="http://www.w3.org/2000/svg"><path d="M960 96H64a32 32 0 0 1 0-64h896a32 32 0 0 1 0 64zM512 928a32 32 0 0 1 32 32 33.6 33.6 0 0 1-9.28 22.72 37.12 37.12 0 0 1-10.56 6.72A32 32 0 0 1 480 960a32 32 0 0 1 32-32zM512 704a32 32 0 0 1 32 32v96a32 32 0 0 1-64 0v-96a32 32 0 0 1 32-32zM489.28 265.6a32 32 0 0 1 45.44 0l224 224a32 32 0 0 1-45.12 45.12L544 365.44V608a32 32 0 0 1-64 0v-242.56l-169.28 169.28a32 32 0 0 1-45.44-45.12z" fill="#000" /></svg>